<svg width="24" height="24" viewBox="0 0 24 24" fill="none" xmlns="http://www.w3.org/2000/svg">
<path d="M6.05323 4.61727L7.22912 3.44137C7.25745 3.41291 7.27722 3.37707 7.28618 3.33792C7.29514 3.29878 7.29294 3.25791 7.27982 3.21996C7.26671 3.182 7.2432 3.14849 7.21199 3.12324C7.18077 3.09798 7.14309 3.08199 7.10323 3.07709L2.81216 2.57084C2.67555 2.55477 2.5577 2.66994 2.57377 2.80923L3.08002 7.1003C3.10145 7.27709 3.31841 7.35209 3.4443 7.22619L4.61484 6.05566L8.19609 9.63423C8.27913 9.71727 8.41573 9.71727 8.49877 9.63423L9.63448 8.50119C9.71752 8.41816 9.71752 8.28155 9.63448 8.19852L6.05323 4.61727ZM15.5006 9.63423C15.5836 9.71727 15.7202 9.71727 15.8032 9.63423L19.3845 6.05566L20.555 7.22619C20.5835 7.25452 20.6193 7.27429 20.6585 7.28325C20.6976 7.29221 20.7385 7.29001 20.7764 7.27689C20.8144 7.26378 20.8479 7.24027 20.8732 7.20905C20.8984 7.17784 20.9144 7.14016 20.9193 7.1003L21.4256 2.81191C21.4416 2.6753 21.3264 2.55744 21.1872 2.57352L16.8961 3.07977C16.7193 3.10119 16.6443 3.31816 16.7702 3.44405L17.9461 4.61994L14.3648 8.19584C14.325 8.23611 14.3026 8.2905 14.3026 8.34718C14.3026 8.40385 14.325 8.45824 14.3648 8.49852L15.5006 9.63423V9.63423ZM20.9193 16.8985C20.8979 16.7217 20.6809 16.6467 20.555 16.7726L19.3845 17.9432L15.8032 14.3646C15.763 14.3247 15.7086 14.3023 15.6519 14.3023C15.5952 14.3023 15.5408 14.3247 15.5006 14.3646L14.3648 15.4976C14.325 15.5379 14.3026 15.5923 14.3026 15.649C14.3026 15.7056 14.325 15.76 14.3648 15.8003L17.9461 19.3815L16.7702 20.5574C16.7419 20.5859 16.7221 20.6217 16.7131 20.6609C16.7042 20.7 16.7064 20.7409 16.7195 20.7789C16.7326 20.8168 16.7561 20.8503 16.7873 20.8756C16.8186 20.9008 16.8562 20.9168 16.8961 20.9217L21.1872 21.428C21.3238 21.444 21.4416 21.3289 21.4256 21.1896L20.9193 16.8985ZM8.49877 14.3646C8.45849 14.3247 8.40411 14.3023 8.34743 14.3023C8.29075 14.3023 8.23636 14.3247 8.19609 14.3646L4.61484 17.9432L3.4443 16.7726C3.41584 16.7443 3.38 16.7245 3.34085 16.7156C3.30171 16.7066 3.26084 16.7088 3.22289 16.7219C3.18493 16.735 3.15142 16.7585 3.12616 16.7898C3.10091 16.821 3.08492 16.8587 3.08002 16.8985L2.57377 21.1869C2.5577 21.3235 2.67287 21.4414 2.81216 21.4253L7.10323 20.919C7.28002 20.8976 7.35502 20.6807 7.22912 20.5548L6.05323 19.3815L9.63448 15.803C9.71752 15.7199 9.71752 15.5833 9.63448 15.5003L8.49877 14.3646V14.3646Z" fill="#1C1C1C"/>
</svg>
