<svg width="18" height="22" viewBox="0 0 18 22" fill="none" xmlns="http://www.w3.org/2000/svg">
<path d="M16.8871 5.76641C17.0277 5.90703 17.1074 6.09687 17.1074 6.29609V20.75C17.1074 21.1648 16.7723 21.5 16.3574 21.5H1.35742C0.942578 21.5 0.607422 21.1648 0.607422 20.75V1.25C0.607422 0.835156 0.942578 0.5 1.35742 0.5H11.3113C11.5105 0.5 11.7027 0.579688 11.8434 0.720313L16.8871 5.76641ZM15.3777 6.64062L10.9668 2.22969V6.64062H15.3777ZM4.35742 10.2969C4.30769 10.2969 4.26 10.3166 4.22484 10.3518C4.18968 10.387 4.16992 10.4346 4.16992 10.4844V11.6094C4.16992 11.6591 4.18968 11.7068 4.22484 11.742C4.26 11.7771 4.30769 11.7969 4.35742 11.7969H13.3574C13.4072 11.7969 13.4548 11.7771 13.49 11.742C13.5252 11.7068 13.5449 11.6591 13.5449 11.6094V10.4844C13.5449 10.4346 13.5252 10.387 13.49 10.3518C13.4548 10.3166 13.4072 10.2969 13.3574 10.2969H4.35742ZM4.35742 13.4844C4.30769 13.4844 4.26 13.5041 4.22484 13.5393C4.18968 13.5745 4.16992 13.6221 4.16992 13.6719V14.7969C4.16992 14.8466 4.18968 14.8943 4.22484 14.9295C4.26 14.9646 4.30769 14.9844 4.35742 14.9844H8.66992C8.71965 14.9844 8.76734 14.9646 8.8025 14.9295C8.83767 14.8943 8.85742 14.8466 8.85742 14.7969V13.6719C8.85742 13.6221 8.83767 13.5745 8.8025 13.5393C8.76734 13.5041 8.71965 13.4844 8.66992 13.4844H4.35742Z" fill="#1C1C1C"/>
</svg>
